<svg width="259" height="207" viewBox="0 0 259 207" fill="none" xmlns="http://www.w3.org/2000/svg">
<path fill-rule="evenodd" clip-rule="evenodd" d="M258.717 155.387C257.406 157.203 250.855 153.416 244.214 154.756C236.763 156.26 230.317 162.009 231.121 164.344C231.228 164.627 231.424 164.869 231.68 165.032C232.746 164.468 233.775 163.861 234.677 162.698C237.329 159.228 241.45 157.913 245.427 158.403C249.395 158.894 253.062 161.195 254.544 164.966C254.663 165.274 254.743 165.595 254.783 165.923C254.825 166.276 254.83 166.632 254.798 166.987C254.711 167.821 254.495 168.637 254.158 169.406C253.438 171.137 252.098 173.092 250.245 175.178C246.569 179.35 240.789 184.047 236.295 188.447C227.313 197.247 223.893 204.841 220.833 205.779H220.374C216.648 204.591 211.064 195.903 207.667 189.326C207.35 190.249 207.078 190.999 206.853 191.565C206.461 192.542 205.934 193.823 205.273 195.406C204.685 196.846 203.96 198.225 203.107 199.527C202.371 200.636 201.549 201.687 200.649 202.67C199.291 204.084 197.537 205.058 195.616 205.463C193.708 205.94 191.697 205.793 189.88 205.044C186.601 203.462 184.299 200.249 182.973 195.406L182.271 192.054C180.319 195.965 178.524 198.898 176.886 200.854C172.827 205.324 168.964 206.721 165.297 205.044C162.175 203.556 159.931 200.064 158.566 194.568C158.236 193.223 157.976 191.863 157.787 190.491C154.334 196.665 150.829 201.144 147.271 203.927C144.304 206.35 141.495 207.188 138.843 206.441C136.11 205.697 134.003 203.415 132.522 199.597C130.256 193.45 130.53 185.069 133.341 174.453C130.496 174.453 128.099 174.2 126.151 173.694C123.92 177.946 121.415 182.049 118.65 185.977C114.473 191.984 110.629 196.523 107.117 199.596C103.839 202.484 100.347 204.393 96.6403 205.323C92.934 206.254 89.2077 205.835 85.4613 204.066C82.1047 202.019 79.6074 198.55 77.9694 193.66C77.1761 191.283 76.5935 188.842 76.2282 186.364C75.7005 189.092 75.2668 191.314 74.9272 193.031C73.9908 197.409 72.2739 200.832 69.7765 203.298C67.2791 205.764 64.6848 206.998 61.9937 207C59.3012 207 56.7063 205.743 54.2091 203.228C51.7119 200.714 50.034 197.082 49.1755 192.332C45.351 172.032 41.2539 148.704 36.8842 122.349C34.2071 123.966 31.1721 124.901 28.0466 125.073C24.7284 125.307 21.2361 124.631 17.5698 123.048C16.3206 122.397 15.3646 121.28 14.7018 119.695C14.0389 118.111 14.0389 116.737 14.7018 115.574C15.3638 114.411 16.8271 114.155 19.0916 114.806C21.5882 115.459 24.6123 115.133 28.1637 113.828C31.3675 112.685 34.4624 111.26 37.4114 109.568C40.0251 108.031 42.4833 107.403 44.7862 107.682C47.0891 107.962 48.6303 109.731 49.41 112.99C49.5874 113.677 49.7049 114.378 49.7611 115.085C49.902 115.393 49.9815 115.725 49.9954 116.063C53.1149 136.458 56.0803 156.619 58.8917 176.548C59.2815 179.156 59.6327 181.065 59.9452 182.275C60.1282 183.117 60.403 183.937 60.7649 184.719C60.9989 185.139 61.272 184.859 61.5842 183.881C61.8963 182.903 62.1694 181.949 62.4035 181.018C62.6378 180.087 62.9889 178.458 63.4571 176.129C64.0023 173.614 65.7582 163.022 68.7247 144.351C71.6912 125.681 73.4081 115.088 73.8755 112.574C74.4992 109.221 77.4256 107.499 82.6549 107.406C86.7118 107.406 89.3262 108.198 90.4979 109.782C90.6118 109.915 90.6924 110.073 90.7331 110.243C90.7738 110.413 90.7735 110.59 90.7321 110.76C89.9511 114.485 87.4538 127.453 83.2402 149.662C82.297 154.634 81.4263 159.216 80.6279 163.409C80.9027 163.036 81.1849 162.666 81.483 162.304C85.2288 157.743 89.638 155.508 94.7107 155.599C101.188 155.693 105.051 157.719 106.3 161.676C107.548 165.633 106.104 170.498 101.968 176.273C100.953 177.764 99.3339 179.975 97.1103 182.908C94.8867 185.841 93.3841 187.865 92.6027 188.98C94.3184 190.844 96.1329 191.682 98.0461 191.494C99.9593 191.307 101.774 190.468 103.489 188.98C106.533 186.374 109.986 182.765 113.849 178.154C116.21 175.337 118.212 172.808 119.856 170.567C118.195 169.176 116.913 167.389 116.13 165.373C115.117 163.046 115.468 160.578 117.184 157.969C118.9 155.361 120.929 154.057 123.271 154.058H123.739C125.065 154.058 126.118 154.477 126.899 155.315C128.615 157.271 129.551 160.717 129.708 165.652C134.139 165.493 138.47 164.297 142.351 162.16L142.936 161.741C143.404 161.462 143.814 161.206 144.165 160.973C144.626 160.687 145.117 160.453 145.628 160.274C146.155 160.067 146.706 159.927 147.268 159.855C147.78 159.819 148.29 159.941 148.731 160.204C149.271 160.515 149.731 160.945 150.077 161.462C151.637 164.07 151.949 167.376 151.013 171.379C150.779 172.497 149.901 175.174 148.38 179.411C146.858 183.648 146.058 187.024 145.98 189.539C146.303 189.978 146.724 190.337 147.209 190.586C147.56 190.726 148.38 189.911 149.667 188.142C150.955 186.372 151.93 184.952 152.594 183.881C153.256 182.812 154.173 181.345 155.345 179.481L157.78 175.076C157.788 175.007 157.794 174.94 157.802 174.871C158.661 167.328 161.724 161.787 166.991 158.249C172.257 154.71 177.193 154.431 181.799 157.411C181.642 147.074 181.681 140.787 181.916 138.552C182.774 135.107 185.818 133.384 191.047 133.384C193.154 133.384 194.949 133.757 196.431 134.502C196.665 137.295 196.704 146.864 196.549 163.207C196.393 179.551 196.549 187.769 197.017 187.862C197.251 188.609 197.602 189.028 198.07 189.119C198.539 189.213 199.024 189.028 199.534 188.561C200.058 188.076 200.528 187.538 200.938 186.954C201.339 186.392 201.71 185.809 202.05 185.208C202.718 184.444 203.656 182.907 204.719 180.979L204.647 179.481C204.72 179.87 204.802 180.263 204.894 180.66C205.138 180.214 205.387 179.75 205.642 179.269L204.384 173.928C204.473 175.779 204.561 177.63 204.649 179.481C204.6 179.225 204.548 178.966 204.508 178.713C204.376 177.89 204.283 177.088 204.23 176.308C204.178 175.527 204.163 174.77 204.185 174.034C204.223 172.638 204.404 171.248 204.728 169.889C205.251 167.593 206.249 165.431 207.657 163.54C209.066 161.65 210.853 160.072 212.907 158.907C214.691 157.889 216.658 157.23 218.697 156.967C219.173 156.909 219.652 156.877 220.131 156.871C220.597 156.865 221.062 156.885 221.525 156.933C222.413 157.021 223.286 157.225 224.12 157.541C226.937 158.624 228.951 161.032 228.804 164.871C228.822 164.519 228.846 164.166 228.882 163.814C229.796 154.824 236.119 149.057 239.952 146.49C243.403 144.179 246.895 143.497 248.146 143.615C255.165 144.274 260.281 153.222 258.717 155.387ZM94.7676 173.824C97.0685 171.264 98.668 169.262 99.5661 167.817C100.464 166.373 100.64 165.232 100.093 164.395C99.4676 163.371 98.3946 162.929 96.8742 163.068C96.1351 163.13 95.4165 163.342 94.7623 163.69C94.1081 164.038 93.5321 164.516 93.0697 165.094C89.3239 169.472 88.3874 174.128 90.2603 179.062C90.9629 178.133 92.4654 176.386 94.7676 173.824ZM123.154 159.925C122.452 159.739 122.101 160.112 122.101 161.042C122.178 162.719 122.802 163.836 123.974 164.395C123.974 161.601 123.701 160.111 123.154 159.925ZM181.917 166.909C181.215 164.954 180.044 163.976 178.406 163.976C178.126 163.971 177.848 164.018 177.586 164.116C175.245 164.769 173.352 166.911 171.909 170.541C170.498 174.003 169.763 177.701 169.743 181.437C169.743 184.51 170.66 186.768 172.494 188.212C174.328 189.655 176.064 189.166 177.703 186.745C178.561 185.442 179.966 182.881 181.917 179.062V166.909ZM207.871 188.721C207.844 188.803 207.816 188.886 207.788 188.967C207.888 189.186 207.981 189.402 208.084 189.623L207.871 188.721ZM228.589 166.701H228.788C228.769 166.139 228.773 165.577 228.798 165.015C228.768 165.581 228.698 166.145 228.589 166.701ZM229.811 67.4416C228.321 68.1992 226.58 69.0156 224.622 69.8846C221.154 71.4245 218.344 72.2548 215.435 74.3076C214.886 74.6992 214.358 75.1182 213.853 75.563C212.948 76.3661 211.986 77.1017 210.973 77.7639C210.562 78.3337 210.201 78.9382 209.896 79.5705C209.53 80.3341 209.036 82.1187 208.55 83.5516C207.807 85.7406 207.26 87.3004 206.91 88.231C206.56 89.1615 206.034 90.442 205.331 92.0725C204.718 93.5335 203.974 94.9361 203.107 96.263C202.37 97.3722 201.548 98.423 200.648 99.406C199.243 100.848 197.458 101.865 195.498 102.339C193.391 102.898 191.44 102.805 189.645 102.06C186.601 100.571 184.377 97.312 182.972 92.2819C182.894 91.9109 182.815 91.5376 182.738 91.1643C182.661 90.791 182.581 90.3963 182.504 89.9763C182.428 89.5564 182.347 89.208 182.27 88.9286C180.474 92.5605 178.64 95.494 176.768 97.7289C172.554 102.293 168.691 103.689 165.179 101.919C162.759 100.71 160.945 98.6385 159.736 95.7034C158.515 92.7098 157.899 89.5057 157.922 86.2744C157.91 85.8586 157.916 85.4428 157.916 85.0285C156.774 90.4393 154.097 95.3934 149.669 98.7764C147.642 100.325 141.206 104.686 135.095 102.756C132.505 101.963 130.218 100.404 128.538 98.286C126.82 96.1452 125.63 93.4213 124.967 90.1144C124.955 90.055 124.945 89.9957 124.933 89.9363C124.904 90.3331 124.842 90.7268 124.748 91.1135C124.348 92.7701 123.053 94.2271 121.632 96.2612C120.898 97.3726 120.076 98.4236 119.174 99.4042C117.769 100.846 115.983 101.863 114.024 102.338C111.917 102.896 109.966 102.803 108.17 102.058C105.127 100.57 102.903 97.3103 101.498 92.2801C101.419 91.9091 101.341 91.5358 101.264 91.1625C101.187 90.7892 101.107 90.3945 101.03 89.9746C100.953 89.5546 100.872 89.2063 100.796 88.9268C98.9995 92.5588 97.1657 95.4922 95.294 97.7271C91.0797 102.291 87.2166 103.688 83.7049 101.918C81.285 100.709 79.4706 98.6367 78.2617 95.7017C77.0414 92.7086 76.4253 89.5052 76.4487 86.2747C76.4084 84.716 76.4499 83.1563 76.573 81.6019C75.8869 85.1572 75.3387 87.9721 74.9284 90.0464C73.992 94.4246 72.2751 97.8469 69.7777 100.313C66.6646 103.388 64.0752 104.153 61.9937 104.016C60.2305 103.898 58.2923 103.113 55.995 100.846C51.8409 96.7477 50.2961 90.7945 50.0678 89.6411C48.4745 81.5983 39.6965 34.6197 38.806 22.4103C38.4483 17.513 35.9686 14.3619 34.9532 13.5639C34.0888 12.8835 33.2928 12.6231 32.5825 12.6795C32.0456 12.7443 31.5348 12.9475 31.1007 13.269C30.9129 13.4062 28.4275 14.7266 27.8407 15.0385C26.985 15.4742 26.1061 15.8632 25.2081 16.2038L23.9399 17.0651C22.3871 17.963 20.7415 18.691 19.0317 19.2364C18.5408 19.509 18.0515 19.7849 17.5689 20.0644C17.5886 19.9177 17.6121 19.776 17.6336 19.6323C16.3692 19.9519 15.0798 20.1633 13.7793 20.2642C12.0255 20.3994 10.2618 20.3252 8.52572 20.0433C4.13853 18.7553 0.683023 15.5834 0.0911107 11.4081C-0.652208 6.1621 3.32666 0.466187 5.70325 0.609038C7.9347 0.742386 7.93053 6.44454 11.7857 9.36481C14.4215 11.312 17.6868 12.2194 20.9535 11.9124C21.3352 11.5348 21.7561 11.1988 22.2092 10.91C23.7056 9.96265 25.0879 10.145 26.6545 8.84598C28.6311 7.2072 28.4031 5.41667 30.507 3.83313C31.2637 3.26381 32.7125 2.59945 34.656 2.35889C37.0282 2.10421 39.4195 2.62139 41.4723 3.83313C45.2031 5.99015 46.6069 9.69031 47.3994 11.7948C48.4792 14.6625 50.0031 18.2236 50.3629 19.7564C52.2539 27.8125 54.2765 38.9216 55.1926 47.8187C56.1351 56.9719 58.1018 68.2862 58.8902 73.5639C59.28 76.1721 59.6312 78.0811 59.9437 79.291C60.1267 80.1332 60.4015 80.9529 60.7634 81.7355C60.9974 82.1545 61.2705 81.8751 61.5827 80.8975C61.8948 79.9198 62.1679 78.9653 62.402 78.0339C62.6363 77.1033 62.9875 75.4737 63.4556 73.1449C64.5864 67.5209 68.6117 43.2953 68.7232 41.3658C69.2659 31.9914 71.5611 24.9249 72.5897 15.6283C72.8308 13.449 73.6078 5.97916 77.798 3.20441C80.2521 2.50738 89.0616 0.0780248 90.7262 4.26406L91.0716 4.26139C92.3028 6.91294 94.4399 9.04206 97.101 10.2685C101.929 12.4024 106.816 10.5985 109.371 8.64492C113.141 5.76414 113.137 0.134156 115.32 0.0025905C117.645 -0.138181 121.535 5.48378 120.808 10.6618C120.229 14.7828 116.85 17.9136 112.56 19.1853C110.862 19.4636 109.137 19.5369 107.422 19.4036C103.913 19.1128 100.516 18.0329 97.4858 16.2451L89.9909 11.1126C88.7746 17.0422 86.6093 28.911 83.2388 46.6747C81.3963 56.3856 79.8296 64.6145 78.5389 71.3615C78.7282 70.7455 78.9264 70.1296 79.1404 69.5136C81.0898 63.9261 83.8991 59.7354 87.5684 56.9416C89.4698 55.6545 91.7078 54.9504 94.0061 54.9161C96.3144 54.8616 98.5899 55.4676 100.563 56.6624C102.045 53.8685 104.971 52.4716 109.343 52.4716C111.684 52.4716 113.518 52.7976 114.844 53.4496C115.078 56.3373 115.118 62.1808 114.962 70.9802C114.806 79.7795 114.962 84.2728 115.43 84.4601C115.664 85.2065 116.015 85.6256 116.483 85.7173C116.952 85.8089 117.459 85.6226 118.005 85.1583C118.551 84.6789 119.042 84.1402 119.468 83.5522C120.569 81.5514 122.693 77.9332 123.564 78.1417C123.577 78.1456 123.59 78.1509 123.601 78.1577C123.538 76.1929 123.506 73.9633 123.506 71.469C123.506 65.2311 125.086 60.5516 128.246 57.4304C131.407 54.3093 135.055 52.7029 139.192 52.6112C143.172 52.6112 146.371 54.3806 148.791 57.9195C150.506 60.6215 151.365 63.9274 151.366 67.8371C150.273 69.8867 149.103 70.818 147.854 70.6309C146.995 70.4456 146.604 69.5143 146.683 67.8371C146.877 65.8469 146.381 63.8506 145.279 62.1798C144.186 60.5517 142.898 60.0163 141.416 60.5734C138.449 61.6909 136.966 66.7662 136.967 75.7994C136.967 80.2694 137.592 83.9479 138.84 86.8348C140.089 89.7217 141.689 91.1651 143.639 91.1649C146.012 91.1649 148.104 89.7239 150.194 87.533C153.209 84.3045 155.996 80.871 158.533 77.2573C158.537 77.3568 158.536 77.4566 158.539 77.5561C159.002 74.8219 159.695 72.1317 160.612 69.5139C162.562 63.9264 165.372 59.7357 169.041 56.9419C170.942 55.6548 173.18 54.9507 175.479 54.9164C177.786 54.8622 180.061 55.4683 182.034 56.6627C183.515 53.8688 186.442 52.4719 190.813 52.4719C193.155 52.4719 194.988 52.7979 196.315 53.4499C196.549 56.3376 196.588 62.1811 196.432 70.9805C196.276 79.7798 196.432 84.2731 196.9 84.4604C197.135 85.2068 197.486 85.6259 197.954 85.7176C198.422 85.8092 198.929 85.6229 199.476 85.1586C200.029 84.686 200.52 84.1465 200.939 83.5525C201.34 82.9902 201.711 82.4073 202.051 81.8062C202.753 80.5033 203.885 77.8724 205.446 73.9138L205.641 73.8796C206.477 68.1843 210.834 59.5432 215.433 57.5008C224.159 53.6251 235.826 58.9783 235.881 62.8086C235.898 63.892 233.698 65.4675 229.81 67.4416H229.811ZM100.095 63.6461C99.3925 62.1576 98.456 61.4125 97.2855 61.4109H97.0512C94.8656 61.5048 93.1097 64.252 91.7836 69.6526C90.3789 75.6134 90.1837 80.2696 91.1983 83.6214C92.1347 86.6944 93.9687 86.2754 96.7001 82.3643C96.9342 81.993 98.1048 79.8045 100.212 75.7988V70.7702C100.288 69.2817 100.249 66.907 100.094 63.6461H100.095ZM181.567 63.6461C180.865 62.1576 179.929 61.4125 178.758 61.4109H178.524C176.338 61.5048 174.582 64.252 173.256 69.6526C171.851 75.6134 171.656 80.2696 172.671 83.6214C173.607 86.6944 175.441 86.2754 178.173 82.3643C178.407 81.993 179.577 79.8045 181.684 75.7988V70.7702C181.761 69.2817 181.721 66.907 181.566 63.6461H181.567ZM78.814 2.65379C78.4593 2.80571 78.1195 2.99004 77.7989 3.20441C76.8097 3.48506 76.8535 3.48358 78.8131 2.65379H78.814Z" fill="white"/>
</svg>
