<svg width="251" height="201" viewBox="0 0 251 201" fill="none" xmlns="http://www.w3.org/2000/svg">
<path fill-rule="evenodd" clip-rule="evenodd" d="M250.726 150.883C249.455 152.647 243.107 148.969 236.67 150.271C229.449 151.731 223.203 157.313 223.982 159.58C224.086 159.855 224.276 160.09 224.523 160.249C225.557 159.701 226.554 159.111 227.428 157.983C229.999 154.613 233.992 153.336 237.847 153.812C241.691 154.288 245.245 156.522 246.682 160.185C246.797 160.484 246.874 160.795 246.913 161.113C246.954 161.456 246.959 161.802 246.928 162.146C246.843 162.957 246.634 163.749 246.308 164.496C245.61 166.177 244.311 168.075 242.516 170.1C238.953 174.152 233.352 178.713 228.996 182.985C220.292 191.53 216.978 198.903 214.012 199.814H213.567C209.956 198.661 204.544 190.225 201.253 183.838C200.946 184.735 200.681 185.463 200.463 186.012C200.084 186.961 199.573 188.205 198.932 189.742C198.363 191.14 197.66 192.48 196.834 193.743C196.12 194.82 195.323 195.841 194.451 196.795C193.136 198.169 191.436 199.114 189.574 199.508C187.725 199.97 185.776 199.828 184.015 199.101C180.837 197.565 178.606 194.445 177.321 189.742L176.641 186.487C174.75 190.285 173.01 193.133 171.422 195.032C167.489 199.372 163.745 200.729 160.191 199.101C157.166 197.656 154.992 194.265 153.668 188.928C153.348 187.623 153.096 186.301 152.913 184.97C149.567 190.965 146.17 195.314 142.722 198.016C139.847 200.368 137.124 201.182 134.554 200.458C131.906 199.734 129.864 197.519 128.428 193.811C126.233 187.843 126.498 179.705 129.222 169.396C126.465 169.396 124.142 169.151 122.254 168.659C120.093 172.788 117.665 176.772 114.986 180.587C110.937 186.419 107.212 190.827 103.809 193.811C100.631 196.615 97.247 198.469 93.6552 199.372C90.0634 200.276 86.4522 199.869 82.8215 198.151C79.5686 196.163 77.1485 192.795 75.561 188.046C74.7923 185.739 74.2277 183.369 73.8737 180.963C73.3622 183.611 72.942 185.769 72.6129 187.436C71.7054 191.687 70.0415 195.01 67.6212 197.405C65.201 199.8 62.6868 200.998 60.0788 201C57.4695 201 54.9548 199.779 52.5347 197.338C50.1146 194.896 48.4886 191.369 47.6565 186.758C43.9502 167.046 39.9796 144.394 35.7449 118.803C33.1505 120.372 30.2092 121.281 27.1803 121.448C23.9646 121.674 20.5802 121.019 17.0271 119.481C15.8165 118.85 14.89 117.764 14.2477 116.226C13.6053 114.687 13.6053 113.353 14.2477 112.224C14.8893 111.095 16.3073 110.846 18.5019 111.478C20.9214 112.113 23.852 111.796 27.2938 110.529C30.3986 109.419 33.3979 108.035 36.2559 106.392C38.7888 104.9 41.1711 104.29 43.4028 104.561C45.6346 104.832 47.1282 106.55 47.8838 109.715C48.0557 110.382 48.1696 111.063 48.2241 111.75C48.3606 112.049 48.4377 112.371 48.4511 112.699C51.4743 132.502 54.3481 152.079 57.0726 171.43C57.4504 173.963 57.7907 175.817 58.0936 176.992C58.2709 177.809 58.5373 178.605 58.8879 179.365C59.1148 179.772 59.3794 179.501 59.682 178.551C59.9845 177.602 60.2491 176.675 60.476 175.771C60.703 174.867 61.0433 173.285 61.497 171.024C62.0254 168.582 63.727 158.296 66.6019 140.167C69.4768 122.038 71.1407 111.752 71.5936 109.311C72.198 106.055 75.0341 104.383 80.1018 104.293C84.0335 104.293 86.5671 105.062 87.7026 106.6C87.8129 106.729 87.8911 106.882 87.9305 107.047C87.97 107.212 87.9697 107.384 87.9296 107.549C87.1727 111.167 84.7525 123.758 80.6691 145.324C79.755 150.152 78.9112 154.601 78.1375 158.672C78.4038 158.311 78.6773 157.951 78.9661 157.6C82.5962 153.17 86.8693 151 91.7853 151.089C98.0627 151.18 101.806 153.147 103.016 156.989C104.226 160.832 102.827 165.556 98.8187 171.163C97.835 172.611 96.2656 174.759 94.1107 177.606C91.9558 180.454 90.4997 182.419 89.7423 183.502C91.4051 185.312 93.1635 186.126 95.0177 185.944C96.8718 185.761 98.6301 184.948 100.293 183.502C103.242 180.972 106.589 177.468 110.332 172.99C112.621 170.255 114.561 167.799 116.154 165.623C114.544 164.272 113.302 162.537 112.543 160.579C111.561 158.32 111.902 155.924 113.564 153.391C115.227 150.857 117.194 149.591 119.464 149.593H119.917C121.202 149.593 122.223 150 122.979 150.813C124.642 152.712 125.55 156.058 125.702 160.851C129.996 160.696 134.193 159.534 137.954 157.46L138.521 157.053C138.975 156.782 139.372 156.533 139.712 156.307C140.159 156.03 140.634 155.803 141.13 155.629C141.641 155.428 142.174 155.291 142.719 155.222C143.215 155.187 143.71 155.305 144.137 155.561C144.66 155.862 145.106 156.28 145.441 156.782C146.953 159.314 147.256 162.524 146.349 166.412C146.122 167.497 145.271 170.097 143.796 174.211C142.322 178.325 141.546 181.603 141.471 184.045C141.784 184.471 142.192 184.82 142.662 185.062C143.002 185.197 143.796 184.406 145.044 182.688C146.292 180.97 147.237 179.591 147.881 178.551C148.522 177.513 149.411 176.089 150.546 174.279L152.907 170.001C152.914 169.934 152.92 169.869 152.927 169.803C153.761 162.478 156.729 157.097 161.833 153.662C166.937 150.226 171.72 149.955 176.184 152.848C176.031 142.811 176.069 136.707 176.297 134.536C177.128 131.191 180.078 129.518 185.146 129.518C187.188 129.518 188.927 129.88 190.364 130.603C190.591 133.316 190.629 142.607 190.478 158.477C190.327 174.347 190.478 182.327 190.931 182.417C191.158 183.142 191.499 183.549 191.952 183.638C192.406 183.729 192.877 183.549 193.37 183.095C193.878 182.625 194.335 182.102 194.732 181.535C195.12 180.989 195.48 180.424 195.809 179.84C196.456 179.098 197.365 177.605 198.395 175.733L198.326 174.279C198.397 174.656 198.476 175.038 198.565 175.424C198.801 174.99 199.043 174.54 199.29 174.073L198.071 168.886C198.157 170.684 198.243 172.481 198.327 174.279C198.281 174.03 198.23 173.779 198.191 173.533C198.063 172.734 197.973 171.955 197.922 171.197C197.871 170.44 197.856 169.704 197.878 168.99C197.915 167.634 198.091 166.285 198.404 164.964C198.912 162.735 199.879 160.636 201.243 158.8C202.608 156.964 204.341 155.432 206.331 154.301C208.06 153.312 209.966 152.672 211.942 152.417C212.403 152.361 212.867 152.33 213.332 152.324C213.783 152.318 214.234 152.338 214.683 152.384C215.544 152.47 216.389 152.668 217.197 152.975C219.927 154.026 221.879 156.364 221.737 160.093C221.755 159.75 221.778 159.408 221.812 159.065C222.698 150.337 228.825 144.736 232.54 142.244C235.885 140 239.268 139.338 240.482 139.452C247.283 140.092 252.242 148.781 250.726 150.883ZM91.8405 168.785C94.0703 166.3 95.6204 164.355 96.4907 162.953C97.3611 161.551 97.5313 160.443 97.0014 159.63C96.3952 158.636 95.3554 158.206 93.882 158.342C93.1657 158.402 92.4692 158.607 91.8352 158.945C91.2013 159.283 90.6431 159.747 90.195 160.308C86.5648 164.56 85.6573 169.081 87.4724 173.872C88.1533 172.969 89.6093 171.274 91.8405 168.785ZM119.35 155.289C118.67 155.109 118.329 155.471 118.329 156.375C118.404 158.002 119.009 159.087 120.144 159.63C120.144 156.917 119.88 155.47 119.35 155.289ZM176.298 162.071C175.618 160.172 174.483 159.223 172.895 159.223C172.624 159.218 172.355 159.264 172.101 159.359C169.832 159.993 167.998 162.073 166.599 165.598C165.231 168.959 164.519 172.55 164.5 176.178C164.5 179.162 165.389 181.355 167.166 182.756C168.943 184.158 170.626 183.683 172.214 181.332C173.045 180.067 174.407 177.58 176.298 173.872V162.071ZM201.451 183.251C201.424 183.331 201.397 183.411 201.37 183.489C201.466 183.702 201.557 183.912 201.657 184.127L201.451 183.251ZM221.528 161.869H221.721C221.703 161.324 221.706 160.778 221.731 160.232C221.702 160.782 221.634 161.329 221.528 161.869ZM222.713 65.4867C221.268 66.2224 219.581 67.0151 217.683 67.8589C214.323 69.3542 211.599 70.1605 208.78 72.1538C208.249 72.534 207.737 72.9409 207.247 73.3727C206.371 74.1526 205.438 74.8669 204.456 75.5099C204.058 76.0632 203.709 76.6501 203.413 77.2641C203.058 78.0055 202.579 79.7384 202.108 81.1298C201.388 83.2554 200.859 84.77 200.519 85.6735C200.18 86.5771 199.67 87.8205 198.988 89.4037C198.395 90.8224 197.673 92.1843 196.833 93.4727C196.119 94.5498 195.323 95.5701 194.451 96.5247C193.089 97.9247 191.359 98.9121 189.459 99.373C187.417 99.9157 185.526 99.8254 183.787 99.1019C180.837 97.6564 178.682 94.4914 177.321 89.607C177.245 89.2468 177.168 88.8843 177.094 88.5219C177.019 88.1594 176.941 87.7761 176.867 87.3683C176.793 86.9606 176.715 86.6223 176.64 86.3509C174.9 89.8776 173.122 92.726 171.308 94.8962C167.224 99.3276 163.481 100.684 160.077 98.9652C157.732 97.7913 155.974 95.7794 154.802 92.9294C153.619 90.0226 153.021 86.9113 153.044 83.7737C153.033 83.37 153.038 82.9662 153.039 82.5639C151.931 87.8179 149.337 92.6284 145.046 95.9133C143.082 97.4169 136.845 101.652 130.922 99.7776C128.412 99.0077 126.196 97.4939 124.567 95.4372C122.903 93.3584 121.75 90.7134 121.107 87.5024C121.096 87.4448 121.085 87.3871 121.074 87.3294C121.046 87.7147 120.986 88.0971 120.895 88.4725C120.507 90.0811 119.253 91.4959 117.875 93.471C117.164 94.5502 116.367 95.5707 115.493 96.5229C114.131 97.923 112.401 98.9104 110.502 99.3712C108.461 99.914 106.57 99.8236 104.829 99.1002C101.88 97.6546 99.7243 94.4897 98.363 89.6053C98.2867 89.2451 98.2105 88.8826 98.1362 88.5201C98.062 88.1576 97.9837 87.7744 97.9092 87.3666C97.8347 86.9588 97.7567 86.6206 97.6822 86.3492C95.9416 89.8759 94.1644 92.7243 92.3505 94.8945C88.2664 99.3259 84.5227 100.682 81.1194 98.9635C78.7743 97.7896 77.0159 95.7777 75.8444 92.9277C74.6618 90.0214 74.0647 86.9109 74.0874 83.774C74.0483 82.2605 74.0885 80.746 74.2078 79.2366C73.5429 82.6889 73.0117 85.4222 72.614 87.4364C71.7065 91.6877 70.0426 95.0108 67.6224 97.4057C64.6055 100.392 62.0961 101.134 60.0788 101.001C58.3701 100.887 56.4918 100.124 54.2654 97.923C50.2396 93.9434 48.7425 88.1628 48.5213 87.0428C46.9772 79.2332 38.4704 33.6162 37.6073 21.7607C37.2607 17.0053 34.8576 13.9456 33.8735 13.1708C33.0359 12.5101 32.2644 12.2572 31.5761 12.312C31.0557 12.3749 30.5608 12.5722 30.14 12.8844C29.9581 13.0176 27.5494 14.2998 26.9807 14.6026C26.1515 15.0256 25.2998 15.4034 24.4294 15.7342L23.2004 16.5705C21.6957 17.4423 20.1009 18.1492 18.4439 18.6788C17.9682 18.9435 17.4939 19.2114 17.0263 19.4828C17.0453 19.3403 17.0681 19.2028 17.0889 19.0632C15.8636 19.3736 14.614 19.5789 13.3537 19.6769C11.6541 19.8081 9.94486 19.7361 8.26238 19.4623C4.0107 18.2116 0.661926 15.1317 0.0882965 11.0774C-0.632062 5.98349 3.22391 0.452675 5.52709 0.591385C7.68961 0.720867 7.68557 6.25774 11.4217 9.09337C13.9761 10.9841 17.1405 11.8652 20.3063 11.5671C20.6762 11.2005 21.0841 10.8742 21.5232 10.5938C22.9734 9.67388 24.313 9.85094 25.8312 8.58957C27.7467 6.9983 27.5258 5.25966 29.5647 3.72202C30.298 3.1692 31.7021 2.5241 33.5856 2.29051C35.8845 2.04322 38.2019 2.54541 40.1913 3.72202C43.8069 5.81652 45.1673 9.40943 45.9354 11.4529C46.9818 14.2375 48.4586 17.6954 48.8073 19.1837C50.6399 27.0063 52.6 37.7934 53.4879 46.4327C54.4012 55.3205 56.3072 66.3069 57.0712 71.4317C57.449 73.9642 57.7893 75.8179 58.0922 76.9928C58.2695 77.8105 58.5358 78.6065 58.8865 79.3664C59.1133 79.7732 59.378 79.5019 59.6805 78.5526C59.983 77.6033 60.2477 76.6764 60.4745 75.7721C60.7015 74.8685 61.0419 73.286 61.4956 71.0248C62.5914 65.5637 66.4924 42.0404 66.6005 40.1668C67.1264 31.0641 69.3508 24.2024 70.3475 15.1753C70.5812 13.0592 71.3342 5.80585 75.395 3.11153C77.7732 2.4347 86.3107 0.0757632 87.9238 4.14046L88.2586 4.13787C89.4518 6.71256 91.5228 8.77998 94.1018 9.97091C98.7809 12.0429 103.516 10.2913 105.993 8.39434C109.646 5.59707 109.643 0.130267 111.758 0.00251541C114.011 -0.134176 117.781 5.32483 117.076 10.3527C116.516 14.3543 113.241 17.3944 109.083 18.6292C107.438 18.8995 105.766 18.9706 104.104 18.8412C100.703 18.5588 97.4109 17.5102 94.4746 15.7742L87.2113 10.7905C86.0325 16.5483 83.9341 28.073 80.6677 45.3218C78.8821 54.7512 77.3639 62.7417 76.113 69.293C76.2964 68.6949 76.4885 68.0968 76.6959 67.4987C78.5851 62.0732 81.3076 58.004 84.8636 55.2911C86.7063 54.0413 88.8751 53.3576 91.1025 53.3244C93.3394 53.2714 95.5447 53.8599 97.4569 55.02C98.8928 52.3071 101.729 50.9507 105.965 50.9507C108.234 50.9507 110.011 51.2672 111.297 51.9003C111.524 54.7043 111.562 60.3785 111.411 68.9228C111.259 77.467 111.411 81.8301 111.864 82.012C112.091 82.7368 112.432 83.1437 112.885 83.2327C113.339 83.3217 113.831 83.1408 114.36 82.69C114.889 82.2244 115.365 81.7014 115.778 81.1304C116.844 79.1876 118.903 75.6743 119.747 75.8767C119.76 75.8805 119.772 75.8857 119.784 75.8923C119.722 73.9844 119.691 71.8194 119.691 69.3974C119.691 63.3403 121.222 58.7964 124.285 55.7658C127.348 52.7351 130.884 51.1753 134.892 51.0862C138.75 51.0862 141.85 52.8044 144.195 56.2407C145.857 58.8644 146.689 62.0744 146.691 65.8708C145.631 67.8611 144.497 68.7653 143.287 68.5836C142.454 68.4037 142.076 67.4994 142.153 65.8708C142.34 63.9383 141.86 61.9999 140.791 60.3775C139.732 58.7966 138.484 58.2767 137.048 58.8177C134.173 59.9028 132.736 64.831 132.737 73.6023C132.737 77.9428 133.342 81.5146 134.552 84.3179C135.762 87.1211 137.312 88.5226 139.202 88.5224C141.502 88.5224 143.529 87.1232 145.555 84.9958C148.477 81.8609 151.177 78.5269 153.636 75.0179C153.641 75.1145 153.639 75.2114 153.642 75.3081C154.09 72.6532 154.763 70.0409 155.651 67.499C157.541 62.0735 160.264 58.0043 163.819 55.2914C165.662 54.0416 167.831 53.3579 170.058 53.3246C172.295 53.272 174.499 53.8605 176.411 55.0203C177.847 52.3074 180.683 50.951 184.92 50.951C187.188 50.951 188.966 51.2675 190.251 51.9006C190.478 54.7046 190.516 60.3788 190.365 68.9231C190.213 77.4673 190.365 81.8304 190.818 82.0123C191.045 82.7371 191.386 83.144 191.839 83.233C192.293 83.322 192.785 83.1411 193.314 82.6903C193.85 82.2313 194.326 81.7075 194.732 81.1307C195.121 80.5847 195.481 80.0187 195.81 79.435C196.491 78.1698 197.587 75.6153 199.1 71.7714L199.289 71.7382C200.099 66.208 204.322 57.8173 208.779 55.8341C217.235 52.0708 228.542 57.2688 228.595 60.988C228.612 62.04 226.479 63.5699 222.712 65.4867H222.713ZM97.0031 61.8012C96.3224 60.3559 95.4149 59.6324 94.2805 59.6309H94.0535C91.9354 59.722 90.2337 62.3896 88.9486 67.6337C87.5872 73.4217 87.3981 77.943 88.3813 81.1976C89.2889 84.1816 91.0662 83.7747 93.7133 79.9769C93.9401 79.6164 95.0746 77.4914 97.1166 73.6017V68.7189C97.1904 67.2735 97.1523 64.9677 97.0023 61.8012H97.0031ZM175.959 61.8012C175.278 60.3559 174.371 59.6324 173.236 59.6309H173.01C170.891 59.722 169.19 62.3896 167.904 67.6337C166.543 73.4217 166.354 77.943 167.337 81.1976C168.245 84.1816 170.022 83.7747 172.669 79.9769C172.896 79.6164 174.031 77.4914 176.072 73.6017V68.7189C176.146 67.2735 176.108 64.9677 175.958 61.8012H175.959ZM76.3796 2.57687C76.0359 2.72439 75.7065 2.90337 75.3958 3.11153C74.4372 3.38405 74.4796 3.3826 76.3787 2.57687H76.3796Z" fill="#79C959"/>
</svg>
